<?xml version="1.0" encoding="utf-8"?>
<!-- Generator: Adobe Illustrator 16.0.4, SVG Export Plug-In . SVG Version: 6.00 Build 0)  -->
<!DOCTYPE svg PUBLIC "-//W3C//DTD SVG 1.1//EN" "http://www.w3.org/Graphics/SVG/1.1/DTD/svg11.dtd">
<svg version="1.1" id="Layer_1" xmlns="http://www.w3.org/2000/svg" xmlns:xlink="http://www.w3.org/1999/xlink" x="0px" y="0px"
	 width="100px" height="83px" viewBox="0 0 100 83" enable-background="new 0 0 100 83" xml:space="preserve">
<g>
	<path d="M41.571,11.536c0.121-0.578,0.185-1.177,0.185-1.79c0-4.829-3.915-8.742-8.742-8.742c-4.828,0-8.742,3.914-8.742,8.742
		c0,0.613,0.064,1.212,0.185,1.79H41.571z"/>
	<path d="M24.272,73.254c0,4.828,3.915,8.742,8.742,8.742c4.827,0,8.742-3.914,8.742-8.742c0-0.613-0.064-1.213-0.185-1.791H24.457
		C24.336,72.041,24.272,72.641,24.272,73.254z"/>
	<path d="M19.701,67.512h6.726h13.175h6.726c0.598,0,1.082-0.484,1.082-1.08v-2.551v-2.869c0-0.598-0.484-1.082-1.082-1.082h-0.753
		V23.07h0.753c0.598,0,1.082-0.484,1.082-1.082v-2.871v-2.548c0-0.597-0.484-1.082-1.082-1.082h-6.726H26.427h-6.726
		c-0.597,0-1.082,0.484-1.082,1.082v2.548v2.871c0,0.598,0.484,1.082,1.082,1.082h0.753v36.86h-0.753
		c-0.597,0-1.082,0.484-1.082,1.082v2.869v2.551C18.619,67.027,19.104,67.512,19.701,67.512z M25.887,35.674
		c2.878-2.843,11.378-4.473,14.255-6.692v6.222c-2.877,2.221-11.377,3.851-14.255,6.694V35.674z M25.887,47.91
		c2.878-2.844,11.378-4.473,14.255-6.693v6.222c-2.877,2.219-11.377,3.85-14.255,6.693V47.91z M26.119,59.93
		c3.078-2.711,11.219-4.314,14.023-6.477v6.477H26.119z M40.007,23.07c-3.001,2.169-11.286,3.792-14.12,6.592V23.07H40.007z"/>
	<path d="M50.172,28.225h19.793c0.002,0.084,0.002,0.152,0.002,0.183c0.023,10.816-7.546,11.703-8.609,9.051
		c-0.484-1.2,0.151-2.912,2.154-2.343c0.403,0.115,0.85-0.126,0.833-0.544c-0.15-4.119-4.868-5.33-7.701-4.091
		c-2.799,1.223-3.788,5.268-1.929,8.018c0.051,0.073,0.062,0.155,0.058,0.238c-0.527-0.188-1.024-0.437-1.478-0.778
		c-0.323-0.242-0.812-0.158-0.9,0.235c-0.25,1.143-0.209,2.138,0.247,3.075c-0.456,0.938-0.497,1.932-0.247,3.076
		c0.088,0.393,0.577,0.477,0.9,0.234c0.453-0.34,0.95-0.59,1.478-0.777c0.005,0.082-0.007,0.164-0.058,0.238
		c-1.859,2.748-0.87,6.793,1.929,8.016c2.833,1.238,7.551,0.029,7.701-4.09c0.017-0.418-0.43-0.66-0.833-0.545
		c-2.003,0.57-2.639-1.143-2.154-2.344c1.063-2.65,8.633-1.764,8.609,9.051c0,0.031,0,0.1-0.002,0.184H50.172v4.902h31.209v-4.902
		h-6.942c0.011-0.979,0.015-2.221-0.02-2.771c-0.349-5.311-2.45-8.467-5.05-10.271c2.6-1.803,4.701-4.961,5.05-10.271
		c0.034-0.55,0.03-1.794,0.02-2.772h6.942v-4.903H50.172V28.225z"/>
</g>
</svg>
