<?xml version="1.0" encoding="utf-8"?>
<!-- Generator: Adobe Illustrator 16.0.4, SVG Export Plug-In . SVG Version: 6.00 Build 0)  -->
<!DOCTYPE svg PUBLIC "-//W3C//DTD SVG 1.1//EN" "http://www.w3.org/Graphics/SVG/1.1/DTD/svg11.dtd">
<svg version="1.1" id="Layer_1" xmlns="http://www.w3.org/2000/svg" xmlns:xlink="http://www.w3.org/1999/xlink" x="0px" y="0px"
	 width="100px" height="83px" viewBox="0 0 100 83" enable-background="new 0 0 100 83" xml:space="preserve">
<g>
	<path d="M45.358,28.662l5.538-6.846h5.484c1.252-3.212,2.343-6.507,3.267-9.872H4.658c-2.501,3.404-2.501,13.314,0,16.718H45.358z"
		/>
	<path d="M96.365,10.77l-2.746-1.228c-0.353-0.158-0.755-0.167-1.116-0.026c-0.359,0.141-0.648,0.421-0.801,0.777
		c-2.251,5.266-10.406,5.66-14.872,1.65h-1.673c0.123-0.911,0.238-1.823,0.34-2.737c0.319-2.88-1.753-5.475-4.633-5.798
		c-0.279-0.032-0.558-0.063-0.837-0.094c-0.103-0.012-0.203-0.014-0.307-0.02c-2.557-0.138-4.861,1.6-5.408,4.133
		c-0.327,1.519-0.691,3.023-1.086,4.516c-0.889,3.363-1.944,6.658-3.161,9.872c-6.276,16.573-16.795,31.024-30.31,41.929
		c-2.569,2.074-2.982,5.834-0.924,8.414c1.409,1.767,2.819,3.533,4.229,5.301c0.438,0.549,0.968,1.003,1.555,1.362
		c0.833,0.511,1.786,0.821,2.782,0.881c1.697,0.102,3.358-0.52,4.57-1.711c15.879-15.617,26.621-35.195,31.397-56.176h5.42
		c9.847,0,16.562-1.725,18.393-9.393C97.34,11.748,96.998,11.053,96.365,10.77z M70.195,17.157c0,1.194-0.967,2.162-2.161,2.162
		c-1.193,0-2.161-0.968-2.161-2.162s0.968-2.162,2.161-2.162C69.229,14.995,70.195,15.963,70.195,17.157z"/>
</g>
</svg>
