<?xml version="1.0" encoding="utf-8"?>
<!-- Generator: Adobe Illustrator 16.0.4, SVG Export Plug-In . SVG Version: 6.00 Build 0)  -->
<!DOCTYPE svg PUBLIC "-//W3C//DTD SVG 1.1//EN" "http://www.w3.org/Graphics/SVG/1.1/DTD/svg11.dtd">
<svg version="1.1" id="Layer_1" xmlns="http://www.w3.org/2000/svg" xmlns:xlink="http://www.w3.org/1999/xlink" x="0px" y="0px"
	 width="100px" height="83px" viewBox="0 0 100 83" enable-background="new 0 0 100 83" xml:space="preserve">
<g>
	<circle cx="40.171" cy="48.926" r="2.657"/>
	<circle cx="60.355" cy="48.926" r="2.657"/>
	<path d="M47.9,54.843c0.012,1.246,1.203,2.253,2.672,2.253c1.469,0,2.658-1.007,2.67-2.253c-0.732,0.497-1.66,0.795-2.67,0.795
		C49.56,55.638,48.633,55.34,47.9,54.843z"/>
	<path d="M70.189,15.122C68.754,3.861,40.351-4.987,26.142,10.216c-13.806,14.772-3.686,32.549-3.686,32.549
		c-1.024,0.731-1.908,1.701-2.583,2.869c-2.149,3.721-2.046,9.303,0.245,13.271c1.176,2.038,2.833,3.55,4.784,4.427
		c2.157,4.781,6.146,11.24,11.297,15.248c1.911,1.486,4.295,2.305,6.714,2.305h14.437c2.5,0,4.883-0.789,6.891-2.284
		c5.842-4.35,9.658-9.409,11.822-15.733c3.299-1.967,5.4-5.924,5.4-10.811c0-3.774-1.305-6.934-3.432-8.878
		c3.535-3.357,8.068-8.894,5.734-17.837C81.359,16.104,70.189,15.122,70.189,15.122z M58.607,74.587
		c-0.408,0.098-0.83,0.148-1.256,0.148h-2.639v-0.975c0-0.714-0.578-1.293-1.293-1.293h-4.309c-0.714,0-1.293,0.579-1.293,1.293
		v0.975h-3.85v-6.501c2.291,0.63,4.786,0.959,7.319,0.959c2.533,0,5.029-0.329,7.32-0.959V74.587z M71.074,58.065h-0.02
		c-1.252,5.287-3.656,3.614-7.891,7.465v0.776c0-1.731-1.42-3.14-3.166-3.14c-0.375,0-0.748,0.066-1.104,0.197
		c-2.27,0.831-4.9,1.271-7.607,1.271c-2.712,0-5.347-0.441-7.618-1.275c-0.354-0.13-0.724-0.196-1.1-0.196
		c-1.741,0-3.158,1.41-3.158,3.144v0.96c-5.033-4.23-8.889-5.703-9.982-9.222c-0.126,0.01-0.248,0.015-0.369,0.015
		c-5.674,0-5.891-10.705-1.766-10.702c0.396,0,0.835,0.099,1.311,0.316C30.737,39.98,39.5,34.945,39.5,34.945
		c-0.441,4.525-2.693,8.599-2.693,8.599c20.18,1.615,30.734-13.235,30.734-13.235c-1.215,10.377,4.342,17.079,4.342,17.079
		c0.275-0.104,0.535-0.152,0.781-0.152C76.311,47.235,76.57,58.065,71.074,58.065z"/>
</g>
</svg>
