<?xml version="1.0" encoding="utf-8"?>
<!-- Generator: Adobe Illustrator 16.0.4, SVG Export Plug-In . SVG Version: 6.00 Build 0)  -->
<!DOCTYPE svg PUBLIC "-//W3C//DTD SVG 1.1//EN" "http://www.w3.org/Graphics/SVG/1.1/DTD/svg11.dtd">
<svg version="1.1" id="Layer_1" xmlns="http://www.w3.org/2000/svg" xmlns:xlink="http://www.w3.org/1999/xlink" x="0px" y="0px"
	 width="100px" height="83px" viewBox="0 0 100 83" enable-background="new 0 0 100 83" xml:space="preserve">
<g>
	<path d="M7.299,60.808c0.523,1.623,2.2,2.578,3.864,2.198l16.462-3.748l13.058-16.86L8.968,56.354
		c-1.545,0.679-2.326,2.419-1.808,4.024L7.299,60.808z"/>
	<path d="M32.836,58.071L19.401,75.419c-0.85,1.096-0.918,2.562-0.267,3.715c0.167,0.295,0.379,0.57,0.64,0.812l0.234,0.218
		c0.532,0.493,1.185,0.78,1.858,0.865c0.93,0.12,1.899-0.146,2.65-0.807l31.097-27.338l4.812-4.23l0.468-8.354l0.213-3.816
		l3.044-4.246c1.774,0.218,3.603-0.046,5.304-0.753c2.046-0.85,3.908-2.334,5.263-4.381c2.954-4.461,2.523-10.105-0.75-13.547
		c0.574-2.867,1.034-7.771-1.446-11.183c-0.472-0.646-1.354-0.526-1.254,0.097c0.086,0.526,0.423,5.413-2.252,8.333
		c-4.123-0.855-8.704,1.01-11.352,5.006c-1.483,2.241-2.113,4.782-1.958,7.192c0.093,1.445,0.473,2.841,1.116,4.1l-9.627,12.431
		L32.836,58.071z M55.88,43.621c0.518,1.707-0.446,3.509-2.152,4.026s-3.508-0.445-4.025-2.152
		c-0.517-1.706,0.446-3.508,2.152-4.026C53.561,40.953,55.363,41.916,55.88,43.621z M61.854,18.587
		c1.726-2.604,5.064-3.431,7.458-1.845c2.396,1.586,2.938,4.983,1.214,7.586c-1.106,1.672-2.879,2.605-4.639,2.644
		c-0.1,0.002-0.198,0.003-0.297,0c-0.55-0.02-1.093-0.126-1.611-0.329c-0.314-0.122-0.62-0.279-0.912-0.472
		c-0.137-0.091-0.268-0.189-0.394-0.292c-0.757-0.62-1.283-1.442-1.57-2.354c-0.088-0.277-0.154-0.562-0.197-0.853
		C60.714,21.324,61.011,19.861,61.854,18.587z"/>
	<path d="M88.431,33.839l-4.114-4.69c-0.274-0.313-0.708-0.436-1.106-0.316l-2.868,0.87c-0.367,0.111-0.55,0.508-0.473,0.884
		c0.104,0.5,0.192,1.224,0.084,1.981c-0.266,0.062-0.531,0.13-0.796,0.21c-3.85,1.167-6.647,4.057-7.645,7.406l-7.399,1.399
		l-0.16-0.063l-0.535,9.588l9.911-2.257c2.621,3.062,7.181,4.406,11.629,3.057c5.826-1.766,9.249-7.481,7.646-12.763
		C91.914,36.863,90.397,35.038,88.431,33.839z M83.531,47.206c-2.961,0.899-6.024-0.55-6.837-3.236
		c-0.815-2.688,0.926-5.593,3.888-6.492s6.024,0.552,6.84,3.238C88.236,43.402,86.495,46.309,83.531,47.206z"/>
</g>
</svg>
