<?xml version="1.0" encoding="utf-8"?>
<!-- Generator: Adobe Illustrator 16.0.4, SVG Export Plug-In . SVG Version: 6.00 Build 0)  -->
<!DOCTYPE svg PUBLIC "-//W3C//DTD SVG 1.1//EN" "http://www.w3.org/Graphics/SVG/1.1/DTD/svg11.dtd">
<svg version="1.1" id="Layer_1" xmlns="http://www.w3.org/2000/svg" xmlns:xlink="http://www.w3.org/1999/xlink" x="0px" y="0px"
	 width="100px" height="83px" viewBox="0 0 100 83" enable-background="new 0 0 100 83" xml:space="preserve">
<path d="M74.834,3.217c-2.843-2.842-7.449-2.842-10.292,0L13.865,53.895c-2.842,2.842-2.842,7.45,0,10.291L30.94,81.261
	c0.916,0.917,2.416,0.862,3.263-0.117l2.217-2.562c0.884-1.021,0.829-2.553-0.126-3.507l-11.419-11.42
	c-0.467-0.467-0.467-1.226,0-1.694l1.221-1.221c0.467-0.468,1.227-0.468,1.694,0L39,71.949c0.916,0.915,2.414,0.86,3.263-0.118
	l0.322-0.373c0.883-1.021,0.828-2.553-0.126-3.507l-10.94-10.94c-0.467-0.468-0.467-1.227,0-1.694l1.221-1.222
	c0.468-0.468,1.227-0.468,1.695,0l10.729,10.73c0.917,0.916,2.416,0.862,3.263-0.118l0.323-0.373
	c0.884-1.021,0.828-2.553-0.126-3.506L38.164,50.366c-0.467-0.468-0.467-1.227,0-1.695l1.221-1.221c0.468-0.469,1.227-0.469,1.695,0
	l10.25,10.251c0.916,0.916,2.415,0.862,3.264-0.118l0.323-0.373c0.883-1.021,0.827-2.553-0.127-3.506l-9.981-9.982
	c-0.467-0.468-0.467-1.227,0-1.695l1.221-1.221c0.468-0.468,1.227-0.468,1.695,0l9.771,9.772c0.916,0.915,2.415,0.861,3.263-0.118
	l0.323-0.374c0.884-1.021,0.828-2.553-0.126-3.506l-9.503-9.504c-0.468-0.467-0.468-1.226,0-1.694l1.222-1.221
	c0.467-0.468,1.226-0.467,1.694,0l9.292,9.292c0.916,0.916,2.415,0.862,3.263-0.117l0.323-0.374c0.884-1.02,0.828-2.552-0.126-3.506
	l-9.023-9.024c-0.468-0.468-0.468-1.226,0-1.694l1.222-1.221c0.467-0.468,1.227-0.468,1.694,0l8.813,8.813
	c0.916,0.916,2.414,0.861,3.263-0.118l0.323-0.374c0.883-1.02,0.828-2.552-0.127-3.506l-8.544-8.545
	c-0.468-0.467-0.468-1.226,0-1.694l1.222-1.222c0.467-0.468,1.227-0.468,1.694,0l8.334,8.334c0.916,0.916,2.415,0.862,3.263-0.118
	l0.323-0.373c0.884-1.021,0.828-2.553-0.126-3.507l-8.065-8.065c-0.468-0.468-0.468-1.227,0-1.695l1.222-1.222
	c0.467-0.468,1.226-0.468,1.694,0l7.855,7.855c0.916,0.916,2.414,0.862,3.263-0.117l2.218-2.562c0.884-1.02,0.827-2.552-0.126-3.507
	L74.834,3.217z"/>
</svg>
