<?xml version="1.0" encoding="utf-8"?>
<!-- Generator: Adobe Illustrator 16.0.4, SVG Export Plug-In . SVG Version: 6.00 Build 0)  -->
<!DOCTYPE svg PUBLIC "-//W3C//DTD SVG 1.1//EN" "http://www.w3.org/Graphics/SVG/1.1/DTD/svg11.dtd">
<svg version="1.1" id="Layer_1" xmlns="http://www.w3.org/2000/svg" xmlns:xlink="http://www.w3.org/1999/xlink" x="0px" y="0px"
	 width="100px" height="83px" viewBox="0 0 100 83" enable-background="new 0 0 100 83" xml:space="preserve">
<g>
	<path d="M42.319,7.805L28.885,39.549v35.833c0,3.566,2.892,6.458,6.458,6.458h16.852h12.463c3.566,0,6.457-2.892,6.457-6.458
		V39.549L57.68,7.805h-0.691V5.467h1.51V1.16H41.511v4.307h1.51v2.338H42.319z M60.881,48.973c1.48,1.85,1.404,4.439-0.035,6.201
		c2.068,0.962,3.256,3.262,2.73,5.574c-0.527,2.311-2.596,3.867-4.877,3.84c0.543,2.215-0.516,4.578-2.652,5.609
		c-2.135,1.027-4.643,0.383-6.04-1.415c-1.397,1.801-3.903,2.448-6.04,1.422c-2.134-1.025-3.195-3.389-2.664-5.604
		c-2.278,0.033-4.347-1.522-4.876-3.832c-0.529-2.311,0.654-4.613,2.719-5.576c-1.445-1.764-1.52-4.35-0.045-6.206
		c1.48-1.858,4.023-2.365,6.068-1.347c0.474-2.232,2.455-3.908,4.828-3.908c2.37,0,4.349,1.669,4.829,3.896
		C56.865,46.614,59.406,47.118,60.881,48.973z"/>
	<circle cx="49.997" cy="57.655" r="3.168"/>
</g>
</svg>
